<svg xmlns="http://www.w3.org/2000/svg" xmlns:cc="http://creativecommons.org/ns#" xmlns:dc="http://purl.org/dc/elements/1.1/" xmlns:rdf="http://www.w3.org/1999/02/22-rdf-syntax-ns#" version="1.1" viewBox="0 0 13.228 13.228">
<metadata>
<rdf:RDF>
<cc:Work rdf:about="">
<dc:format>image/svg+xml</dc:format>
<dc:type rdf:resource="http://purl.org/dc/dcmitype/StillImage"/>
</cc:Work>
</rdf:RDF>
</metadata>
<path d="m3.2208 12.168 0.99888-2.3285" fill="none" stroke="#767677" stroke-width=".26458px"/>
<path d="m10.408 1.2041-0.76307 1.6869" fill="none" stroke="#767677" stroke-width=".26458px"/>
<path d="m2.624 2.1107 1.7143 0.74911" fill="none" stroke="#767677" stroke-width=".26458px"/>
<path d="m10.706 8.8629-1.2582 0.95345-1.6099 0.64084-1.86-0.062512-1.8366-0.6096-1.1457-0.95434" fill="none" stroke="#767677" stroke-width=".26458px"/>
<path d="m3.0801 3.8133 1.2582-0.95345 1.6099-0.64084 1.86 0.062512 1.8366 0.6096 1.1457 0.95434" fill="none" stroke="#767677" stroke-width=".26458px"/>
<path d="m11.173 1.1293c0.0063 0.14549-0.03037 0.28958-0.10531 0.41405-0.07494 0.12447-0.18481 0.22373-0.3157 0.28522-0.13089 0.06149-0.27692 0.082442-0.41962 0.06021-0.1427-0.022235-0.27565-0.086653-0.38204-0.18511-0.10639-0.098455-0.18143-0.22652-0.21563-0.368-0.034203-0.14148-0.026028-0.29001 0.023489-0.4268 0.049518-0.13679 0.13815-0.2557 0.25469-0.34168 0.11654-0.085977 0.25574-0.13516 0.40001-0.14133 0.19326-0.008265 0.38187 0.061179 0.5244 0.19308 0.14252 0.1319 0.22731 0.31546 0.23572 0.51036z" fill="#767677" stroke-width=".26458" style="mix-blend-mode:normal"/>
<path d="m4.2495 11.834c0.00797 0.18343-0.03821 0.36512-0.13269 0.52207-0.094479 0.15695-0.23301 0.28209-0.39805 0.35959s-0.34918 0.10387-0.52908 0.07577c-0.17991-0.0281-0.34751-0.10941-0.48157-0.23363-0.13406-0.12422-0.22857-0.28577-0.27154-0.46418-0.042977-0.17842-0.032495-0.36568 0.030119-0.53809 0.062614-0.17241 0.17454-0.3222 0.32162-0.43041 0.14708-0.10821 0.32268-0.16998 0.50459-0.17748 0.24331-0.01004 0.48064 0.07763 0.65996 0.24378 0.17932 0.16615 0.286 0.39723 0.29666 0.64259z" fill="#989798" stroke-width=".26458" style="mix-blend-mode:normal"/>
<path d="m2.6172 2.6896c-0.10672 0.0046519-0.21242-0.022737-0.3037-0.078694-0.091285-0.055959-0.16406-0.13797-0.2091-0.23566-0.045048-0.097687-0.060346-0.20666-0.043959-0.31312 0.016387-0.10646 0.063723-0.20562 0.13602-0.28494 0.072293-0.079316 0.16629-0.13522 0.2701-0.16063 0.10381-0.025413 0.21276-0.019195 0.31307 0.017869 0.1003 0.037063 0.18745 0.1033 0.25041 0.19034 0.062958 0.087037 0.098898 0.19095 0.10327 0.2986 0.00585 0.14406-0.045199 0.28459-0.14195 0.39074-0.096754 0.10615-0.23131 0.16927-0.37415 0.17549z" fill="#6f7070" stroke-width=".26458" style="mix-blend-mode:normal"/>
<path d="m4.3991 3.3774c-0.10672 0.0046519-0.21242-0.022737-0.3037-0.078694-0.091285-0.055959-0.16406-0.13797-0.2091-0.23566-0.045048-0.097687-0.060346-0.20666-0.043959-0.31312 0.016387-0.10646 0.063723-0.20562 0.13602-0.28494 0.072293-0.079316 0.16629-0.13522 0.2701-0.16063 0.10381-0.025413 0.21276-0.019194 0.31307 0.017869 0.1003 0.037063 0.18745 0.1033 0.25041 0.19034 0.062958 0.087037 0.098898 0.19095 0.10327 0.2986 0.0058527 0.14406-0.045199 0.28459-0.14195 0.39074-0.096754 0.10615-0.23131 0.16927-0.37415 0.17549z" fill="#f37726" stroke-width=".26458" style="mix-blend-mode:normal"/>
<path d="m5.9844 2.9083c-0.13736 0.0059874-0.2734-0.029264-0.39089-0.10128-0.11749-0.072024-0.21116-0.17758-0.26914-0.30331-0.05798-0.12573-0.07767-0.26598-0.056579-0.40301 0.021092-0.13702 0.082017-0.26465 0.17506-0.36674 0.093048-0.10209 0.21403-0.17404 0.34765-0.20675 0.13361-0.032709 0.27384-0.024705 0.40294 0.022999 0.1291 0.047703 0.24127 0.13296 0.3223 0.24498 0.081032 0.11202 0.12729 0.24577 0.13292 0.38432 0.00753 0.18542-0.058175 0.36629-0.18271 0.50292-0.12453 0.13663-0.29771 0.21786-0.48156 0.22587z" fill="#f37726" stroke-width=".26458" style="mix-blend-mode:normal"/>
<path d="m7.9539 2.9708c-0.13736 0.0059874-0.2734-0.029264-0.39089-0.10128-0.11749-0.072024-0.21116-0.17758-0.26914-0.30331-0.05798-0.12573-0.07767-0.26598-0.056579-0.40301 0.021092-0.13702 0.082017-0.26465 0.17506-0.36674 0.093048-0.10209 0.21403-0.17404 0.34765-0.20675 0.13361-0.032709 0.27384-0.024705 0.40294 0.022998 0.1291 0.047703 0.24127 0.13296 0.3223 0.24498 0.081032 0.11202 0.12729 0.24577 0.13292 0.38432 0.00753 0.18542-0.058175 0.36629-0.18271 0.50292-0.12453 0.13663-0.29771 0.21786-0.48156 0.22587z" fill="#f37726" stroke-width=".26458" style="mix-blend-mode:normal"/>
<path d="m9.6482 3.3618c-0.094468 0.0041177-0.18802-0.020126-0.26883-0.069657-0.080803-0.049533-0.14522-0.12213-0.18509-0.2086-0.039875-0.08647-0.053416-0.18293-0.038911-0.27716 0.014505-0.094234 0.056406-0.18201 0.1204-0.25222 0.063992-0.070208 0.1472-0.11969 0.23909-0.14219 0.091889-0.022495 0.18833-0.01699 0.27712 0.015817 0.088786 0.032807 0.16593 0.091442 0.22165 0.16848 0.05573 0.077042 0.08754 0.16902 0.09141 0.26431 0.0052 0.12752-0.04001 0.25191-0.12565 0.34587-0.085643 0.093964-0.20475 0.14983-0.33118 0.15534z" fill="#f37726" stroke-width=".26458" style="mix-blend-mode:normal"/>
<path d="m10.811 4.0947c-0.05121 0.00223-0.10192-0.01091-0.14572-0.037759-0.0438-0.026851-0.07872-0.066201-0.10033-0.11307-0.02162-0.046873-0.02896-0.099159-0.02109-0.15024 0.0079-0.051082 0.03058-0.098662 0.06526-0.13672 0.03469-0.038058 0.07979-0.064881 0.1296-0.077075 0.04981-0.012194 0.10209-0.00921 0.15022 0.00857 0.04813 0.017784 0.08994 0.049568 0.12015 0.09133 0.03021 0.041762 0.04745 0.091624 0.04955 0.14327 0.0028 0.069126-0.02169 0.13655-0.06811 0.18749-0.04643 0.050936-0.11099 0.081218-0.17952 0.084203z" fill="#f37726" stroke-width=".26458" style="mix-blend-mode:normal"/>
<path d="m3.0897 4.0947c-0.051209 0.00223-0.10192-0.01091-0.14572-0.037759-0.043801-0.026851-0.078719-0.066201-0.10033-0.11307-0.021615-0.046873-0.028956-0.099159-0.021093-0.15024 0.00786-0.051082 0.030576-0.098662 0.065264-0.13672 0.034688-0.038058 0.079792-0.064881 0.1296-0.077075 0.04981-0.012194 0.10209-0.00921 0.15022 0.00857 0.048129 0.017784 0.089944 0.049568 0.12015 0.09133s0.047454 0.091624 0.049551 0.14327c0.00281 0.069126-0.021688 0.13655-0.068113 0.18749-0.046425 0.050936-0.11099 0.081218-0.17952 0.084203z" fill="#f37726" stroke-width=".26458" style="mix-blend-mode:normal"/>
<path d="m9.448 9.3212c0.10672-0.00465 0.21242 0.022737 0.3037 0.078693 0.091285 0.055959 0.16406 0.13797 0.2091 0.23566 0.045048 0.097687 0.060346 0.20666 0.043959 0.31312-0.016387 0.10646-0.063724 0.20562-0.13602 0.28494-0.072293 0.07931-0.16629 0.13522-0.2701 0.16063-0.10381 0.02541-0.21276 0.01919-0.31307-0.01787-0.1003-0.037062-0.18745-0.1033-0.25041-0.19034-0.062958-0.087037-0.098898-0.19095-0.10327-0.2986-0.0058527-0.14406 0.045199-0.28459 0.14195-0.39074 0.096754-0.10615 0.23131-0.16927 0.37415-0.17549z" fill="#f37726" stroke-width=".26458" style="mix-blend-mode:normal"/>
<path d="m7.8627 9.7903c0.13736-0.00599 0.2734 0.029265 0.39089 0.10128 0.11749 0.072024 0.21116 0.17758 0.26914 0.30331 0.05798 0.12573 0.07767 0.26598 0.056579 0.40301-0.021092 0.13702-0.082017 0.26465-0.17506 0.36674-0.093048 0.10208-0.21403 0.17404-0.34765 0.20674-0.13361 0.03271-0.27384 0.0247-0.40294-0.023-0.1291-0.0477-0.24127-0.13296-0.3223-0.24498-0.081032-0.11202-0.12729-0.24577-0.13292-0.38432-0.00753-0.18542 0.058175-0.36629 0.18271-0.50292 0.12453-0.13663 0.29771-0.21786 0.48156-0.22586z" fill="#f37726" stroke-width=".26458" style="mix-blend-mode:normal"/>
<path d="m5.8932 9.7278c0.13736-0.00599 0.2734 0.029265 0.39089 0.10128 0.11749 0.072024 0.21116 0.17758 0.26914 0.30331 0.05798 0.12573 0.07767 0.26598 0.056579 0.40301-0.021092 0.13702-0.082017 0.26465-0.17506 0.36674-0.093048 0.10208-0.21403 0.17404-0.34765 0.20674-0.13361 0.03271-0.27384 0.0247-0.40294-0.023-0.1291-0.047702-0.24127-0.13296-0.3223-0.24498-0.081032-0.11202-0.12729-0.24577-0.13292-0.38432-0.0075328-0.18542 0.058175-0.36629 0.18271-0.50292 0.12453-0.13663 0.29771-0.21786 0.48156-0.22587z" fill="#f37726" stroke-width=".26458" style="mix-blend-mode:normal"/>
<path d="m4.1989 9.3368c0.094468-0.00412 0.18802 0.020126 0.26883 0.069657 0.080803 0.049533 0.14522 0.12213 0.18509 0.2086 0.039875 0.086469 0.053416 0.18293 0.038911 0.27716-0.014505 0.094234-0.056406 0.18201-0.1204 0.25222-0.063992 0.07021-0.1472 0.11969-0.23909 0.14218-0.091889 0.02249-0.18833 0.01699-0.27712-0.01582-0.088786-0.032804-0.16593-0.091438-0.22165-0.16848-0.055728-0.077042-0.087541-0.16903-0.091411-0.26431-0.0051806-0.12752 0.040009-0.25191 0.12565-0.34587 0.085643-0.093964 0.20475-0.14983 0.33118-0.15534z" fill="#f37726" stroke-width=".26458" style="mix-blend-mode:normal"/>
<path d="m3.036 8.6039c0.051209-0.00223 0.10192 0.01091 0.14572 0.037759 0.043801 0.026851 0.078719 0.066201 0.10033 0.11307 0.021615 0.046873 0.028956 0.099159 0.021093 0.15024-0.00786 0.051082-0.030576 0.098662-0.065264 0.13672-0.034688 0.038058-0.079792 0.064881-0.1296 0.077075-0.04981 0.012194-0.10209 0.00921-0.15022-0.00857-0.048128-0.017784-0.089944-0.049568-0.12015-0.09133s-0.047454-0.091624-0.049552-0.14327c-0.00281-0.069126 0.021688-0.13655 0.068113-0.18749 0.046425-0.050935 0.11099-0.081218 0.17952-0.084203z" fill="#f37726" stroke-width=".26458" style="mix-blend-mode:normal"/>
<path d="m10.757 8.6039c0.05121-0.00223 0.10192 0.01091 0.14572 0.037759 0.0438 0.026851 0.07872 0.066201 0.10033 0.11307 0.02161 0.046873 0.02896 0.099159 0.02109 0.15024-0.0079 0.051082-0.03058 0.098662-0.06526 0.13672-0.03469 0.038058-0.07979 0.064881-0.1296 0.077075-0.04981 0.012194-0.10209 0.00921-0.15022-0.00857-0.04813-0.017784-0.08994-0.049568-0.12015-0.09133-0.03021-0.041762-0.04745-0.091624-0.04955-0.14327-0.0028-0.069126 0.02169-0.13655 0.06811-0.18749 0.04642-0.050935 0.11099-0.081218 0.17952-0.084203z" fill="#f37726" stroke-width=".26458" style="mix-blend-mode:normal"/>
</svg>