<?xml version="1.0" encoding="UTF-8" standalone="no"?>
<svg
   xmlns:dc="http://purl.org/dc/elements/1.1/"
   xmlns:cc="http://creativecommons.org/ns#"
   xmlns:rdf="http://www.w3.org/1999/02/22-rdf-syntax-ns#"
   xmlns:svg="http://www.w3.org/2000/svg"
   xmlns="http://www.w3.org/2000/svg"
   xmlns:sodipodi="http://sodipodi.sourceforge.net/DTD/sodipodi-0.dtd"
   xmlns:inkscape="http://www.inkscape.org/namespaces/inkscape"
   id="svg8"
   version="1.1"
   viewBox="0 0 13.227788 13.227788"
   height="49.994789"
   width="49.994789"
   sodipodi:docname="logo.svg"
   inkscape:version="0.92.2 (5c3e80d, 2017-08-06)">
  <metadata
     id="metadata41">
    <rdf:RDF>
      <cc:Work
         rdf:about="">
        <dc:format>image/svg+xml</dc:format>
        <dc:type
           rdf:resource="http://purl.org/dc/dcmitype/StillImage" />
      </cc:Work>
    </rdf:RDF>
  </metadata>
  <sodipodi:namedview
     pagecolor="#ffffff"
     bordercolor="#666666"
     borderopacity="1"
     objecttolerance="10"
     gridtolerance="10"
     guidetolerance="10"
     inkscape:pageopacity="0"
     inkscape:pageshadow="2"
     inkscape:window-width="848"
     inkscape:window-height="480"
     id="namedview39"
     showgrid="false"
     inkscape:zoom="4.720492"
     inkscape:cx="24.997395"
     inkscape:cy="24.997395"
     inkscape:window-x="580"
     inkscape:window-y="186"
     inkscape:window-maximized="0"
     inkscape:current-layer="svg8" />
  <defs
     id="defs2">
    <path
       id="path0_fill"
       d="m 5.62592,17.9276 c 0,5.1461 -0.3925,6.8263 -1.43919,8.0666 C 3.04416,27.0501 1.54971,27.6341 0,27.6304 l 0.392506,3.0612 C 2.79452,30.7249 5.12302,29.8564 6.92556,28.255 8.80086,26.3021 9.45504,23.6015 9.45504,19.4583 V 0 H 5.6172 v 17.954 z" />
    <path
       id="path1_fill"
       d="m 17.7413,15.6229 c 0,2.2168 0,4.1696 0.1744,5.8498 h -3.3581 l -0.218,-3.5187 h -0.0873 c -0.7069,1.2298 -1.7261,2.2473 -2.9526,2.9477 -1.2265,0.7005 -2.61593,1.0585 -4.02525,1.0372 C 3.95995,21.9389 0,20.074 0,12.5441 V 0 h 3.83784 v 11.9019 c 0,4.0817 1.22113,6.8262 4.70135,6.8262 1.09173,-0.0201 2.15331,-0.3647 3.05161,-0.9907 0.8984,-0.6259 1.5936,-1.5053 1.9986,-2.5279 0.2328,-0.6395 0.351,-1.3157 0.3489,-1.9969 V 0.0175934 h 3.8379 V 15.6229 Z" />
    <path
       id="path2_fill"
       d="M 0.174447,7.53632 C 0.174447,4.79175 0.0872236,2.57499 0,0.498968 H 3.44533 L 3.61978,4.17598 H 3.707 C 4.46074,2.85853 5.55705,1.77379 6.87754,1.03893 8.19802,0.304077 9.69248,-0.0529711 11.1995,0.0063534 c 5.0939,0 8.9317,4.3983466 8.9317,10.9078466 0,7.7147 -4.6141,11.5237 -9.5946,11.5237 C 9.25812,22.492 7.98766,22.2098 6.84994,21.6192 5.71222,21.0285 4.74636,20.1496 4.04718,19.0688 H 3.95995 V 30.7244 H 0.165725 V 7.50113 Z M 3.96868,13.2542 c 0.01001,0.5349 0.0684,1.0679 0.17444,1.5922 0.31262,1.3003 1.0491,2.4571 2.09137,3.2849 1.04228,0.8279 2.32997,1.2788 3.65667,1.2805 4.05594,0 6.40224,-3.3691 6.40224,-8.2864 0,-4.30162 -2.2242,-7.97863 -6.2714,-7.97863 C 8.66089,3.18518 7.35158,3.68134 6.30219,4.55638 5.25279,5.43143 4.52354,6.63513 4.23035,7.97615 4.07662,8.49357 3.98869,9.02858 3.96868,9.56835 v 3.67705 z" />
    <path
       id="path3_fill"
       d="M 4.16057,0 8.7747,12.676 c 0.47973,1.4163 1.00307,3.1053 1.352,4.3984 h 0.0872 c 0.3925,-1.2843 0.8286,-2.9293 1.352,-4.4775 L 15.7526,0.00879669 h 4.0559 L 14.0604,15.3062 C 11.3129,22.6603 9.44632,26.434 6.82961,28.7388 5.50738,29.9791 3.88672,30.8494 2.12826,31.2634 L 1.1688,27.9823 C 2.39912,27.5689 3.53918,26.9208 4.52691,26.0734 5.92259,24.8972 7.02752,23.4094 7.75418,21.7278 7.90932,21.4374 8.01266,21.1218 8.05946,20.7954 8.02501,20.4436 7.93674,20.0994 7.79779,19.7749 L 0,0.00879669 h 4.18673 z" />
    <path
       id="path4_fill"
       d="m 7.0215,0 v 6.15768 h 5.4864 V 9.13096 H 7.0215 V 20.6898 c 0,2.639 0.7414,4.1696 2.87838,4.1696 0.74972,0.0118 1.49762,-0.077 2.22422,-0.2639 l 0.1744,2.9293 C 11.207,27.9125 10.0534,28.0915 8.89681,28.0526 8.1298,28.1 7.36177,27.9782 6.64622,27.6956 5.93068,27.413 5.28484,26.9765 4.75369,26.4164 3.66339,25.2641 3.27089,23.3552 3.27089,20.8306 V 9.13096 H 0 V 6.15768 H 3.27089 V 1.01162 Z" />
    <path
       id="path5_fill"
       d="m 3.6285,11.9283 c 0.08723,5.278 3.40172,7.4508 7.2308,7.4508 2.0019,0.0634 3.9934,-0.3149 5.8353,-1.1084 l 0.6542,2.7886 c -2.2069,0.9347 -4.585,1.3874 -6.9779,1.3283 C 3.88145,22.3876 0,18.042 0,11.5676 0,5.09328 3.75062,0 9.89116,0 16.7731,0 18.6135,6.15768 18.6135,10.1074 18.607,10.7165 18.5634,11.3246 18.4827,11.9283 H 3.65467 Z M 14.8716,9.13976 c 0.0436,-2.48067 -1.003,-6.34241 -5.31189,-6.34241 -3.88145,0 -5.57359,3.63303 -5.87887,6.34241 H 14.8803 Z" />
    <path
       id="path6_fill"
       d="M 0.174447,7.17854 C 0.174447,4.65389 0.130835,2.48111 0,0.484261 H 3.35811 L 3.48894,4.69787 H 3.66339 C 4.62285,1.81256 6.93428,4.4283e-4 9.49865,4.4283e-4 9.8663,-0.0049786 10.233,0.0394012 10.5889,0.132393 V 3.80941 C 10.1593,3.71494 9.72029,3.67067 9.28059,3.67746 6.57666,3.67746 4.66646,5.76227 4.14312,8.68277 4.03516,9.28384 3.97681,9.89289 3.96867,10.5037 V 21.9394 H 0.174447 Z" />
    <path
       id="path7_fill"
       d="M 5.89353,2.844 C 5.91889,3.43165 5.77085,4.01367 5.46815,4.51645 5.16545,5.01922 4.72168,5.42015 4.19299,5.66851 3.6643,5.91688 3.07444,6.00151 2.49805,5.91171 1.92166,5.8219 1.38463,5.5617 0.954898,5.16401 0.52517,4.76633 0.222056,4.24903 0.0839037,3.67757 -0.0542483,3.10611 -0.02123,2.50617 0.178781,1.95364 0.378793,1.4011 0.736809,0.920817 1.20754,0.573538 1.67826,0.226259 2.24055,0.0275919 2.82326,0.00267229 3.60389,-0.0307115 4.36573,0.249789 4.94142,0.782551 5.51711,1.31531 5.85956,2.05676 5.89353,2.844 Z" />
    <path
       id="path8_fill"
       d="M 18.2646,7.13411 C 10.4145,7.13411 3.55872,4.2576 0,0 c 1.32539,3.8204 3.79556,7.13081 7.0686,9.47303 3.2731,2.34217 7.1871,3.60037 11.2004,3.60037 4.0133,0 7.9273,-1.2582 11.2004,-3.60037 C 32.7424,7.13081 35.2126,3.8204 36.538,0 32.9705,4.2576 26.1148,7.13411 18.2646,7.13411 Z" />
    <path
       id="path9_fill"
       d="m 18.2733,5.93931 c 7.8502,0 14.706,2.87652 18.2647,7.13409 C 35.2126,9.25303 32.7424,5.94262 29.4694,3.6004 26.1963,1.25818 22.2823,0 18.269,0 14.2557,0 10.3417,1.25818 7.0686,3.6004 3.79556,5.94262 1.32539,9.25303 0,13.0734 3.56745,8.82463 10.4232,5.93931 18.2733,5.93931 Z" />
    <path
       id="path10_fill"
       d="M 7.42789,3.58338 C 7.46008,4.3243 7.27355,5.05819 6.89193,5.69213 6.51031,6.32607 5.95075,6.83156 5.28411,7.1446 4.61747,7.45763 3.87371,7.56414 3.14702,7.45063 2.42032,7.33712 1.74336,7.0087 1.20184,6.50695 0.660328,6.0052 0.27861,5.35268 0.105017,4.63202 -0.0685757,3.91135 -0.0262361,3.15494 0.226675,2.45856 0.479587,1.76217 0.931697,1.15713 1.52576,0.720033 2.11983,0.282935 2.82914,0.0334395 3.56389,0.00313344 4.54667,-0.0374033 5.50529,0.316706 6.22961,0.987835 6.95393,1.65896 7.38484,2.59235 7.42789,3.58338 Z" />
    <path
       id="path11_fill"
       d="M 2.27471,4.39629 C 1.84363,4.41508 1.41671,4.30445 1.04799,4.07843 0.679268,3.8524 0.385328,3.52114 0.203371,3.12656 0.0214136,2.73198 -0.0403798,2.29183 0.0258116,1.86181 0.0920031,1.4318 0.283204,1.03126 0.575213,0.710883 0.867222,0.39051 1.24691,0.164708 1.66622,0.0620592 2.08553,-0.0405897 2.52561,-0.0154714 2.93076,0.134235 3.33591,0.283941 3.68792,0.551505 3.94222,0.90306 4.19652,1.25462 4.34169,1.67436 4.35935,2.10916 4.38299,2.69107 4.17678,3.25869 3.78597,3.68746 3.39516,4.11624 2.85166,4.37116 2.27471,4.39629 Z" />
  </defs>
  <path
     inkscape:connector-curvature="0"
     id="path1265"
     d="M 3.2207849,12.168345 4.2196662,9.839825"
     style="fill:none;stroke:#767677;stroke-width:0.26458335px;stroke-linecap:butt;stroke-linejoin:miter;stroke-opacity:1" />
  <path
     inkscape:connector-curvature="0"
     id="path1263"
     d="M 10.407893,1.2041451 9.6448242,2.8910803"
     style="fill:none;stroke:#767677;stroke-width:0.26458335px;stroke-linecap:butt;stroke-linejoin:miter;stroke-opacity:1" />
  <path
     inkscape:connector-curvature="0"
     style="fill:none;stroke:#767677;stroke-width:0.26458335px;stroke-linecap:butt;stroke-linejoin:miter;stroke-opacity:1"
     d="M 2.6239615,2.1107066 4.338303,2.8598118"
     id="path1252" />
  <path
     inkscape:connector-curvature="0"
     style="fill:none;stroke:#767677;stroke-width:0.26458335px;stroke-linecap:butt;stroke-linejoin:miter;stroke-opacity:1"
     d="M 10.706267,8.8629282 9.4480287,9.8163799 7.8380887,10.457222 5.9780755,10.39471 4.1415075,9.7851115 2.9957909,8.8307685"
     id="path1250" />
  <path
     inkscape:connector-curvature="0"
     id="path1248"
     d="M 3.0800646,3.8132635 4.338303,2.8598118 5.948243,2.2189701 7.8082562,2.2814822 9.6448242,2.8910803 10.790541,3.8454232"
     style="fill:none;stroke:#767677;stroke-width:0.26458335px;stroke-linecap:butt;stroke-linejoin:miter;stroke-opacity:1" />
  <path
     d="m 11.173048,1.1293287 c 0.0063,0.145486 -0.03037,0.2895782 -0.105312,0.4140528 C 10.992796,1.6678536 10.88293,1.7671129 10.752041,1.8286 10.621152,1.89009 10.475118,1.911042 10.33242,1.88881 10.189722,1.8665752 10.056768,1.8021568 9.9503779,1.7036996 9.843989,1.605245 9.7689463,1.4771756 9.7347436,1.3356978 9.7005409,1.1942199 9.7087153,1.0456912 9.7582326,0.9088999 9.8077501,0.77210612 9.896385,0.6532012 10.012925,0.56722442 10.129463,0.48124765 10.26867,0.43206311 10.412933,0.4258937 c 0.193263,-0.008265 0.381874,0.0611793 0.524399,0.19307662 0.142525,0.13189655 0.227306,0.31545927 0.235716,0.51035838 z"
     id="use974"
     inkscape:connector-curvature="0"
     style="mix-blend-mode:normal;fill:#767677;stroke-width:0.26458335" />
  <path
     d="m 4.249521,11.834216 c 0.00797,0.183431 -0.03821,0.365122 -0.1326891,0.522069 -0.094479,0.156946 -0.2330104,0.282091 -0.3980522,0.359591 -0.1650418,0.0775 -0.3491764,0.103867 -0.529085,0.07577 -0.179911,-0.0281 -0.3475078,-0.10941 -0.4815733,-0.233629 C 2.5740578,12.433797 2.4795549,12.272251 2.436578,12.093835 2.393601,11.915417 2.404083,11.728151 2.466697,11.555746 2.529311,11.383339 2.6412412,11.233548 2.7883149,11.125334 2.9353904,11.017121 3.1109961,10.955353 3.2929001,10.94785 c 0.2433094,-0.01004 0.4806375,0.07763 0.6599593,0.243785 0.1793218,0.166152 0.2860034,0.397234 0.2966614,0.642586 z"
     id="use989"
     inkscape:connector-curvature="0"
     style="mix-blend-mode:normal;fill:#989798;stroke-width:0.26458335" />
  <path
     d="M 2.61723,2.6896032 C 2.5105064,2.6942551 2.4048127,2.6668661 2.3135277,2.6109097 2.2222423,2.5549509 2.1494708,2.47294 2.1044232,2.3752528 2.0593755,2.2775656 2.0440772,2.1685965 2.0604643,2.0621353 c 0.016387,-0.1064587 0.063723,-0.2056214 0.1360168,-0.284938 0.072293,-0.079316 0.1662938,-0.135218 0.2701035,-0.160631 0.1038096,-0.025413 0.2127614,-0.019195 0.3130655,0.017869 0.100304,0.037063 0.1874521,0.1033046 0.2504098,0.19034 0.062958,0.087037 0.098898,0.1909528 0.1032699,0.2985974 0.00585,0.144065 -0.045199,0.2845922 -0.1419531,0.3907439 C 2.8946228,2.6202705 2.7600671,2.6833817 2.61723,2.6896032 Z"
     id="use994"
     inkscape:connector-curvature="0"
     style="mix-blend-mode:normal;fill:#6f7070;stroke-width:0.26458335" />
  <path
     d="M 4.3990845,3.37736 C 4.2923609,3.3820119 4.1866672,3.3546229 4.0953822,3.2986665 4.0040968,3.2427077 3.9313253,3.1606968 3.8862777,3.0630096 3.84123,2.9653224 3.8259317,2.8563533 3.8423188,2.7498921 3.858706,2.6434334 3.9060422,2.5442707 3.9783356,2.4649541 4.050629,2.3856385 4.1446294,2.3297361 4.2484391,2.3043231 4.3522487,2.27891 4.4612005,2.2851286 4.5615046,2.3221918 c 0.100304,0.037063 0.1874521,0.1033046 0.2504098,0.19034 0.062958,0.087037 0.098898,0.1909528 0.1032699,0.2985974 C 4.921037,2.9551942 4.869985,3.0957214 4.7732312,3.2018731 4.6764773,3.3080273 4.5419216,3.3711385 4.3990845,3.37736 Z"
     id="use1224"
     inkscape:connector-curvature="0"
     style="mix-blend-mode:normal;fill:#f37726;fill-opacity:1;stroke-width:0.26458335" />
  <path
     d="M 5.9844484,2.9083092 C 5.8470862,2.9142966 5.7110496,2.8790447 5.5935582,2.8070242 5.4760662,2.7350005 5.3824032,2.6294457 5.3244232,2.5037141 5.2664431,2.3779825 5.2467528,2.2377302 5.2678445,2.1007058 5.2889362,1.9636845 5.3498617,1.8360538 5.4429094,1.7339668 5.5359571,1.631881 5.6569434,1.5599299 5.7905551,1.5272213 c 0.1336117,-0.032709 0.2738417,-0.024705 0.4029414,0.022999 0.1290996,0.047703 0.2412664,0.1329617 0.3222983,0.2449835 0.081032,0.1120234 0.1272897,0.2457722 0.132917,0.3843197 0.00753,0.1854237 -0.058175,0.3662939 -0.1827056,0.50292 C 6.341476,2.8190723 6.1682915,2.9003017 5.9844484,2.9083092 Z"
     id="use1226"
     inkscape:connector-curvature="0"
     style="mix-blend-mode:normal;fill:#f37726;fill-opacity:1;stroke-width:0.26458332" />
  <path
     d="M 7.9538887,2.9708213 C 7.8165265,2.9768087 7.6804899,2.9415568 7.5629985,2.8695363 7.4455065,2.7975126 7.3518435,2.6919578 7.2938635,2.5662262 7.2358834,2.4404946 7.2161931,2.3002423 7.2372848,2.1632179 7.2583765,2.0261966 7.319302,1.8985659 7.4123497,1.7964789 7.5053974,1.6943931 7.6263837,1.622442 7.7599954,1.5897334 c 0.1336117,-0.032709 0.2738417,-0.024705 0.4029414,0.022998 0.1290996,0.047703 0.2412664,0.1329617 0.3222983,0.2449835 0.081032,0.1120234 0.1272897,0.2457722 0.132917,0.3843197 0.00753,0.1854237 -0.058175,0.3662939 -0.1827056,0.50292 C 8.3109163,2.8815844 8.1377318,2.9628138 7.9538887,2.9708213 Z"
     id="use1228"
     inkscape:connector-curvature="0"
     style="mix-blend-mode:normal;fill:#f37726;fill-opacity:1;stroke-width:0.26458332" />
  <path
     d="M 9.6482401,3.3617776 C 9.5537719,3.3658953 9.4602153,3.3416515 9.3794129,3.2921207 9.2986101,3.2425878 9.2341951,3.1699945 9.1943205,3.0835251 9.1544458,2.9970556 9.1409042,2.9005998 9.1554096,2.8063639 9.169915,2.7121302 9.2118154,2.6243547 9.2758071,2.5541463 9.3397989,2.4839387 9.4230048,2.4344558 9.5148937,2.411961 c 0.091889,-0.022495 0.1883294,-0.01699 0.2771152,0.015817 0.088786,0.032807 0.1659263,0.091442 0.2216541,0.1684826 0.05573,0.077042 0.08754,0.169025 0.09141,0.2643084 0.0052,0.1275216 -0.04001,0.2519115 -0.1256518,0.3458735 -0.085643,0.093964 -0.2047476,0.1498281 -0.3311821,0.1553352 z"
     id="use1230"
     inkscape:connector-curvature="0"
     style="mix-blend-mode:normal;fill:#f37726;fill-opacity:1;stroke-width:0.26458332" />
  <path
     d="m 10.81108,4.0947415 c -0.05121,0.00223 -0.101923,-0.01091 -0.145724,-0.037759 -0.0438,-0.026851 -0.07872,-0.066201 -0.100333,-0.1130742 -0.02162,-0.046873 -0.02896,-0.099159 -0.02109,-0.1502416 0.0079,-0.051082 0.03058,-0.098662 0.06526,-0.1367205 0.03469,-0.038058 0.07979,-0.064881 0.129603,-0.077075 0.04981,-0.012194 0.102088,-0.00921 0.150217,0.00857 0.04813,0.017784 0.08994,0.049568 0.120153,0.09133 0.03021,0.041762 0.04745,0.091624 0.04955,0.1432746 0.0028,0.069126 -0.02169,0.1365545 -0.06811,0.1874887 -0.04643,0.050936 -0.110988,0.081218 -0.179525,0.084203 z"
     id="use1232"
     inkscape:connector-curvature="0"
     style="mix-blend-mode:normal;fill:#f37726;fill-opacity:1;stroke-width:0.26458332" />
  <path
     d="m 3.0896613,4.0947415 c -0.051209,0.00223 -0.1019232,-0.01091 -0.145724,-0.037759 -0.043801,-0.026851 -0.078719,-0.066201 -0.1003336,-0.1130742 -0.021615,-0.046873 -0.028956,-0.099159 -0.021093,-0.1502416 0.00786,-0.051082 0.030576,-0.098662 0.065264,-0.1367205 0.034688,-0.038058 0.079792,-0.064881 0.1296024,-0.077075 0.04981,-0.012194 0.1020883,-0.00921 0.1502167,0.00857 0.048129,0.017784 0.089944,0.049568 0.120153,0.09133 0.030209,0.041762 0.047454,0.091624 0.049551,0.1432746 0.00281,0.069126 -0.021688,0.1365545 -0.068113,0.1874887 -0.046425,0.050936 -0.1109882,0.081218 -0.179525,0.084203 z"
     id="use1234"
     inkscape:connector-curvature="0"
     style="mix-blend-mode:normal;fill:#f37726;fill-opacity:1;stroke-width:0.26458332" />
  <path
     d="m 9.4480361,9.3212369 c 0.1067236,-0.00465 0.2124173,0.022737 0.3037023,0.078693 0.091285,0.055959 0.1640569,0.1379697 0.2091045,0.2356569 0.045048,0.097687 0.060346,0.2066563 0.043959,0.3131175 -0.016387,0.1064597 -0.063724,0.2056217 -0.1360171,0.2849387 -0.072293,0.07931 -0.1662938,0.135218 -0.2701035,0.160631 C 9.4948718,10.419684 9.38592,10.413464 9.2856159,10.376404 9.185312,10.339342 9.0981639,10.2731 9.0352062,10.186065 8.9722485,10.099028 8.9363084,9.9951123 8.9319363,9.8874677 8.9260836,9.7434027 8.9771356,9.6028755 9.0738894,9.4967238 9.1706433,9.3905696 9.305199,9.3274584 9.4480361,9.3212369 Z"
     id="use1236"
     inkscape:connector-curvature="0"
     style="mix-blend-mode:normal;fill:#f37726;fill-opacity:1;stroke-width:0.26458335" />
  <path
     d="m 7.8626623,9.7903121 c 0.1373622,-0.00599 0.2733988,0.029265 0.3908902,0.101285 0.117492,0.072024 0.211155,0.1775789 0.269135,0.3033099 0.05798,0.125732 0.07767,0.265984 0.056579,0.403009 -0.021092,0.137021 -0.082017,0.264651 -0.1750649,0.366739 C 8.3111536,11.06674 8.1901676,11.138691 8.0565559,11.1714 7.9229442,11.20411 7.7827142,11.1961 7.6536145,11.1484 7.5245149,11.1007 7.4123481,11.015439 7.3313162,10.903417 7.2502842,10.791394 7.2040265,10.657645 7.1983992,10.519097 7.1908692,10.333674 7.2565742,10.152803 7.3811048,10.016177 7.5056347,9.879549 7.6788192,9.7983196 7.8626623,9.7903121 Z"
     id="use1238"
     inkscape:connector-curvature="0"
     style="mix-blend-mode:normal;fill:#f37726;fill-opacity:1;stroke-width:0.26458332" />
  <path
     d="m 5.8932221,9.7278001 c 0.1373622,-0.00599 0.2733988,0.029265 0.3908902,0.101285 0.117492,0.072024 0.211155,0.1775789 0.269135,0.3033099 0.05798,0.125732 0.07767,0.265984 0.056579,0.403009 -0.021092,0.137021 -0.082017,0.264651 -0.1750649,0.366739 -0.093048,0.102085 -0.214034,0.174036 -0.3476457,0.206745 -0.1336117,0.03271 -0.2738417,0.0247 -0.4029414,-0.023 C 5.5550744,11.038186 5.4429076,10.952928 5.3618757,10.840906 5.2808439,10.728883 5.234586,10.595134 5.2289587,10.456586 5.2214259,10.271163 5.287134,10.090292 5.4116643,9.9536663 5.5361945,9.817037 5.709379,9.7358076 5.8932221,9.7278001 Z"
     id="use1240"
     inkscape:connector-curvature="0"
     style="mix-blend-mode:normal;fill:#f37726;fill-opacity:1;stroke-width:0.26458332" />
  <path
     d="m 4.1988706,9.3368446 c 0.094468,-0.00412 0.1880248,0.020126 0.2688272,0.069657 0.080803,0.049533 0.1452178,0.1221262 0.1850924,0.2085956 0.039875,0.086469 0.053416,0.1829253 0.038911,0.2771612 -0.014505,0.094234 -0.056406,0.1820096 -0.1203975,0.2522176 -0.063992,0.07021 -0.1471977,0.11969 -0.2390866,0.142185 -0.091889,0.02249 -0.1883294,0.01699 -0.2771152,-0.01582 C 3.966316,10.238037 3.8891755,10.179403 3.8334474,10.102362 3.7777193,10.02532 3.7459064,9.9333367 3.7420363,9.8380533 3.7368557,9.7105317 3.7820452,9.5861418 3.8676885,9.4921798 3.9533318,9.3982157 4.0724361,9.3423517 4.1988706,9.3368446 Z"
     id="use1242"
     inkscape:connector-curvature="0"
     style="mix-blend-mode:normal;fill:#f37726;fill-opacity:1;stroke-width:0.26458332" />
  <path
     d="m 3.0360305,8.6038804 c 0.051209,-0.00223 0.1019232,0.01091 0.145724,0.037759 0.043801,0.026851 0.078719,0.066201 0.1003336,0.1130742 0.021615,0.046873 0.028956,0.099159 0.021093,0.1502416 -0.00786,0.051082 -0.030576,0.098662 -0.065264,0.1367205 -0.034688,0.038058 -0.079792,0.064881 -0.1296024,0.077075 -0.04981,0.012194 -0.1020883,0.00921 -0.1502167,-0.00857 C 2.90997,9.0923967 2.868154,9.0606127 2.837945,9.0188507 2.807736,8.9770887 2.790491,8.9272267 2.788393,8.8755761 2.785583,8.8064501 2.810081,8.7390216 2.856506,8.6880874 2.902931,8.6371524 2.9674942,8.6068694 3.036031,8.6038844 Z"
     id="use1244"
     inkscape:connector-curvature="0"
     style="mix-blend-mode:normal;fill:#f37726;fill-opacity:1;stroke-width:0.26458332" />
  <path
     d="m 10.75745,8.6038804 c 0.05121,-0.00223 0.101923,0.01091 0.145724,0.037759 0.0438,0.026851 0.07872,0.066201 0.100333,0.1130742 0.02161,0.046873 0.02896,0.099159 0.02109,0.1502416 -0.0079,0.051082 -0.03058,0.098662 -0.06526,0.1367205 -0.03469,0.038058 -0.07979,0.064881 -0.129603,0.077075 -0.04981,0.012194 -0.102088,0.00921 -0.150217,-0.00857 -0.04813,-0.017784 -0.08994,-0.049568 -0.120153,-0.09133 -0.03021,-0.041762 -0.04745,-0.091624 -0.04955,-0.1432746 -0.0028,-0.069126 0.02169,-0.1365545 0.06811,-0.1874887 0.04642,-0.050935 0.110988,-0.081218 0.179525,-0.084203 z"
     id="use1246"
     inkscape:connector-curvature="0"
     style="mix-blend-mode:normal;fill:#f37726;fill-opacity:1;stroke-width:0.26458332" />
</svg>
