<?xml version="1.0" encoding="UTF-8" standalone="no"?>
<svg
   xmlns:figma="http://www.figma.com/figma/ns"
   xmlns:dc="http://purl.org/dc/elements/1.1/"
   xmlns:cc="http://creativecommons.org/ns#"
   xmlns:rdf="http://www.w3.org/1999/02/22-rdf-syntax-ns#"
   xmlns:svg="http://www.w3.org/2000/svg"
   xmlns="http://www.w3.org/2000/svg"
   xmlns:xlink="http://www.w3.org/1999/xlink"
   width="330"
   height="49.994789"
   viewBox="0 0 87.312502 13.227788"
   version="1.1"
   id="svg8">
  <defs
     id="defs2">
    <path
       d="m 5.62592,17.9276 c 0,5.1461 -0.3925,6.8263 -1.43919,8.0666 C 3.04416,27.0501 1.54971,27.6341 0,27.6304 l 0.392506,3.0612 C 2.79452,30.7249 5.12302,29.8564 6.92556,28.255 8.80086,26.3021 9.45504,23.6015 9.45504,19.4583 V 0 H 5.6172 v 17.954 z"
       id="path0_fill" />
    <path
       d="m 17.7413,15.6229 c 0,2.2168 0,4.1696 0.1744,5.8498 h -3.3581 l -0.218,-3.5187 h -0.0873 c -0.7069,1.2298 -1.7261,2.2473 -2.9526,2.9477 -1.2265,0.7005 -2.61593,1.0585 -4.02525,1.0372 C 3.95995,21.9389 0,20.074 0,12.5441 V 0 h 3.83784 v 11.9019 c 0,4.0817 1.22113,6.8262 4.70135,6.8262 1.09173,-0.0201 2.15331,-0.3647 3.05161,-0.9907 0.8984,-0.6259 1.5936,-1.5053 1.9986,-2.5279 0.2328,-0.6395 0.351,-1.3157 0.3489,-1.9969 V 0.0175934 h 3.8379 V 15.6229 Z"
       id="path1_fill" />
    <path
       d="M 0.174447,7.53632 C 0.174447,4.79175 0.0872236,2.57499 0,0.498968 H 3.44533 L 3.61978,4.17598 H 3.707 C 4.46074,2.85853 5.55705,1.77379 6.87754,1.03893 8.19802,0.304077 9.69248,-0.0529711 11.1995,0.0063534 c 5.0939,0 8.9317,4.3983466 8.9317,10.9078466 0,7.7147 -4.6141,11.5237 -9.5946,11.5237 C 9.25812,22.492 7.98766,22.2098 6.84994,21.6192 5.71222,21.0285 4.74636,20.1496 4.04718,19.0688 H 3.95995 V 30.7244 H 0.165725 V 7.50113 Z M 3.96868,13.2542 c 0.01001,0.5349 0.0684,1.0679 0.17444,1.5922 0.31262,1.3003 1.0491,2.4571 2.09137,3.2849 1.04228,0.8279 2.32997,1.2788 3.65667,1.2805 4.05594,0 6.40224,-3.3691 6.40224,-8.2864 0,-4.30162 -2.2242,-7.97863 -6.2714,-7.97863 C 8.66089,3.18518 7.35158,3.68134 6.30219,4.55638 5.25279,5.43143 4.52354,6.63513 4.23035,7.97615 4.07662,8.49357 3.98869,9.02858 3.96868,9.56835 v 3.67705 z"
       id="path2_fill" />
    <path
       d="M 4.16057,0 8.7747,12.676 c 0.47973,1.4163 1.00307,3.1053 1.352,4.3984 h 0.0872 c 0.3925,-1.2843 0.8286,-2.9293 1.352,-4.4775 L 15.7526,0.00879669 h 4.0559 L 14.0604,15.3062 C 11.3129,22.6603 9.44632,26.434 6.82961,28.7388 5.50738,29.9791 3.88672,30.8494 2.12826,31.2634 L 1.1688,27.9823 C 2.39912,27.5689 3.53918,26.9208 4.52691,26.0734 5.92259,24.8972 7.02752,23.4094 7.75418,21.7278 7.90932,21.4374 8.01266,21.1218 8.05946,20.7954 8.02501,20.4436 7.93674,20.0994 7.79779,19.7749 L 0,0.00879669 h 4.18673 z"
       id="path3_fill" />
    <path
       d="m 7.0215,0 v 6.15768 h 5.4864 V 9.13096 H 7.0215 V 20.6898 c 0,2.639 0.7414,4.1696 2.87838,4.1696 0.74972,0.0118 1.49762,-0.077 2.22422,-0.2639 l 0.1744,2.9293 C 11.207,27.9125 10.0534,28.0915 8.89681,28.0526 8.1298,28.1 7.36177,27.9782 6.64622,27.6956 5.93068,27.413 5.28484,26.9765 4.75369,26.4164 3.66339,25.2641 3.27089,23.3552 3.27089,20.8306 V 9.13096 H 0 V 6.15768 H 3.27089 V 1.01162 Z"
       id="path4_fill" />
    <path
       d="m 3.6285,11.9283 c 0.08723,5.278 3.40172,7.4508 7.2308,7.4508 2.0019,0.0634 3.9934,-0.3149 5.8353,-1.1084 l 0.6542,2.7886 c -2.2069,0.9347 -4.585,1.3874 -6.9779,1.3283 C 3.88145,22.3876 0,18.042 0,11.5676 0,5.09328 3.75062,0 9.89116,0 16.7731,0 18.6135,6.15768 18.6135,10.1074 18.607,10.7165 18.5634,11.3246 18.4827,11.9283 H 3.65467 Z M 14.8716,9.13976 c 0.0436,-2.48067 -1.003,-6.34241 -5.31189,-6.34241 -3.88145,0 -5.57359,3.63303 -5.87887,6.34241 H 14.8803 Z"
       id="path5_fill" />
    <path
       d="M 0.174447,7.17854 C 0.174447,4.65389 0.130835,2.48111 0,0.484261 H 3.35811 L 3.48894,4.69787 H 3.66339 C 4.62285,1.81256 6.93428,4.4283e-4 9.49865,4.4283e-4 9.8663,-0.0049786 10.233,0.0394012 10.5889,0.132393 V 3.80941 C 10.1593,3.71494 9.72029,3.67067 9.28059,3.67746 6.57666,3.67746 4.66646,5.76227 4.14312,8.68277 4.03516,9.28384 3.97681,9.89289 3.96867,10.5037 V 21.9394 H 0.174447 Z"
       id="path6_fill" />
    <path
       d="M 5.89353,2.844 C 5.91889,3.43165 5.77085,4.01367 5.46815,4.51645 5.16545,5.01922 4.72168,5.42015 4.19299,5.66851 3.6643,5.91688 3.07444,6.00151 2.49805,5.91171 1.92166,5.8219 1.38463,5.5617 0.954898,5.16401 0.52517,4.76633 0.222056,4.24903 0.0839037,3.67757 -0.0542483,3.10611 -0.02123,2.50617 0.178781,1.95364 0.378793,1.4011 0.736809,0.920817 1.20754,0.573538 1.67826,0.226259 2.24055,0.0275919 2.82326,0.00267229 3.60389,-0.0307115 4.36573,0.249789 4.94142,0.782551 5.51711,1.31531 5.85956,2.05676 5.89353,2.844 Z"
       id="path7_fill" />
    <path
       d="M 18.2646,7.13411 C 10.4145,7.13411 3.55872,4.2576 0,0 c 1.32539,3.8204 3.79556,7.13081 7.0686,9.47303 3.2731,2.34217 7.1871,3.60037 11.2004,3.60037 4.0133,0 7.9273,-1.2582 11.2004,-3.60037 C 32.7424,7.13081 35.2126,3.8204 36.538,0 32.9705,4.2576 26.1148,7.13411 18.2646,7.13411 Z"
       id="path8_fill" />
    <path
       d="m 18.2733,5.93931 c 7.8502,0 14.706,2.87652 18.2647,7.13409 C 35.2126,9.25303 32.7424,5.94262 29.4694,3.6004 26.1963,1.25818 22.2823,0 18.269,0 14.2557,0 10.3417,1.25818 7.0686,3.6004 3.79556,5.94262 1.32539,9.25303 0,13.0734 3.56745,8.82463 10.4232,5.93931 18.2733,5.93931 Z"
       id="path9_fill" />
    <path
       d="M 7.42789,3.58338 C 7.46008,4.3243 7.27355,5.05819 6.89193,5.69213 6.51031,6.32607 5.95075,6.83156 5.28411,7.1446 4.61747,7.45763 3.87371,7.56414 3.14702,7.45063 2.42032,7.33712 1.74336,7.0087 1.20184,6.50695 0.660328,6.0052 0.27861,5.35268 0.105017,4.63202 -0.0685757,3.91135 -0.0262361,3.15494 0.226675,2.45856 0.479587,1.76217 0.931697,1.15713 1.52576,0.720033 2.11983,0.282935 2.82914,0.0334395 3.56389,0.00313344 4.54667,-0.0374033 5.50529,0.316706 6.22961,0.987835 6.95393,1.65896 7.38484,2.59235 7.42789,3.58338 Z"
       id="path10_fill" />
    <path
       d="M 2.27471,4.39629 C 1.84363,4.41508 1.41671,4.30445 1.04799,4.07843 0.679268,3.8524 0.385328,3.52114 0.203371,3.12656 0.0214136,2.73198 -0.0403798,2.29183 0.0258116,1.86181 0.0920031,1.4318 0.283204,1.03126 0.575213,0.710883 0.867222,0.39051 1.24691,0.164708 1.66622,0.0620592 2.08553,-0.0405897 2.52561,-0.0154714 2.93076,0.134235 3.33591,0.283941 3.68792,0.551505 3.94222,0.90306 4.19652,1.25462 4.34169,1.67436 4.35935,2.10916 4.38299,2.69107 4.17678,3.25869 3.78597,3.68746 3.39516,4.11624 2.85166,4.37116 2.27471,4.39629 Z"
       id="path11_fill" />
  </defs>
  <metadata
     id="metadata5">
    <rdf:RDF>
      <cc:Work
         rdf:about="">
        <dc:format>image/svg+xml</dc:format>
        <dc:type
           rdf:resource="http://purl.org/dc/dcmitype/StillImage" />
        <dc:title></dc:title>
      </cc:Work>
    </rdf:RDF>
  </metadata>
  <g
     id="layer1"
     transform="translate(-69.613025,-148.3437)">
    <g
       figma:type="canvas"
       transform="matrix(0.24757263,0,0,0.24757263,-335.57484,-369.47734)"
       id="Canvas"
       style="stroke-width:1.06870997">
      <g
         id="g1287"
         transform="translate(6.5792372,-5.0912081e-6)"
         style="stroke-width:1.06870997">
        <path
           id="path1265"
           d="m 1643.0726,2140.743 4.0347,-9.4054"
           style="fill:none;stroke:#767677;stroke-width:1.06870997px;stroke-linecap:butt;stroke-linejoin:miter;stroke-opacity:1" />
        <path
           id="path1263"
           d="m 1672.1029,2096.4562 -3.0822,6.8139"
           style="fill:none;stroke:#767677;stroke-width:1.06870997px;stroke-linecap:butt;stroke-linejoin:miter;stroke-opacity:1" />
        <path
           style="fill:none;stroke:#767677;stroke-width:1.06870997px;stroke-linecap:butt;stroke-linejoin:miter;stroke-opacity:1"
           d="m 1640.6619,2100.118 6.9246,3.0258"
           id="path1252" />
        <path
           style="fill:none;stroke:#767677;stroke-width:1.06870997px;stroke-linecap:butt;stroke-linejoin:miter;stroke-opacity:1"
           d="m 1673.3081,2127.3917 -5.0823,3.8512 -6.5029,2.5885 -7.513,-0.2525 -7.4183,-2.4623 -4.6278,-3.8548"
           id="path1250" />
        <path
           id="path1248"
           d="m 1642.5042,2106.995 5.0823,-3.8512 6.5029,-2.5885 7.513,0.2525 7.4183,2.4623 4.6278,3.8548"
           style="fill:none;stroke:#767677;stroke-width:1.06870997px;stroke-linecap:butt;stroke-linejoin:miter;stroke-opacity:1" />
        <use
           height="100%"
           width="100%"
           y="0"
           x="0"
           xlink:href="#path7_fill"
           transform="translate(1669.3,2093.31)"
           style="mix-blend-mode:normal;fill:#767677;stroke-width:1.06870997"
           id="use974" />
        <use
           height="100%"
           width="100%"
           y="0"
           x="0"
           xlink:href="#path10_fill"
           transform="translate(1639.8,2135.81)"
           style="mix-blend-mode:normal;fill:#989798;stroke-width:1.06870997"
           id="use989" />
        <use
           height="100%"
           width="100%"
           y="0"
           x="0"
           xlink:href="#path11_fill"
           transform="translate(1638.36,2098.06)"
           style="mix-blend-mode:normal;fill:#6f7070;stroke-width:1.06870997"
           id="use994" />
        <use
           id="use1224"
           style="mix-blend-mode:normal;fill:#f37726;fill-opacity:1;stroke-width:1.06870997"
           transform="translate(1645.5573,2100.838)"
           xlink:href="#path11_fill"
           x="0"
           y="0"
           width="100%"
           height="100%" />
        <use
           height="100%"
           width="100%"
           y="0"
           x="0"
           xlink:href="#path11_fill"
           transform="matrix(1.2870834,0,0,1.2870834,1651.3079,2097.6813)"
           style="mix-blend-mode:normal;fill:#f37726;fill-opacity:1;stroke-width:0.83033466"
           id="use1226" />
        <use
           id="use1228"
           style="mix-blend-mode:normal;fill:#f37726;fill-opacity:1;stroke-width:0.83033466"
           transform="matrix(1.2870834,0,0,1.2870834,1659.2629,2097.9338)"
           xlink:href="#path11_fill"
           x="0"
           y="0"
           width="100%"
           height="100%" />
        <use
           height="100%"
           width="100%"
           y="0"
           x="0"
           xlink:href="#path11_fill"
           transform="matrix(0.88516667,0,0,0.88516667,1667.021,2101.2799)"
           style="mix-blend-mode:normal;fill:#f37726;fill-opacity:1;stroke-width:1.20735443"
           id="use1230" />
        <use
           id="use1232"
           style="mix-blend-mode:normal;fill:#f37726;fill-opacity:1;stroke-width:2.22728992"
           transform="matrix(0.4798252,0,0,0.4798252,1672.64,2106.0225)"
           xlink:href="#path11_fill"
           x="0"
           y="0"
           width="100%"
           height="100%" />
        <use
           height="100%"
           width="100%"
           y="0"
           x="0"
           xlink:href="#path11_fill"
           transform="matrix(0.4798252,0,0,0.4798252,1641.4515,2106.0225)"
           style="mix-blend-mode:normal;fill:#f37726;fill-opacity:1;stroke-width:2.22728992"
           id="use1234" />
        <use
           height="100%"
           width="100%"
           y="0"
           x="0"
           xlink:href="#path11_fill"
           transform="rotate(180,835.25027,1066.8196)"
           style="mix-blend-mode:normal;fill:#f37726;fill-opacity:1;stroke-width:1.06870997"
           id="use1236" />
        <use
           id="use1238"
           style="mix-blend-mode:normal;fill:#f37726;fill-opacity:1;stroke-width:0.83033466"
           transform="matrix(-1.2870834,0,0,-1.2870834,1664.7499,2136.796)"
           xlink:href="#path11_fill"
           x="0"
           y="0"
           width="100%"
           height="100%" />
        <use
           height="100%"
           width="100%"
           y="0"
           x="0"
           xlink:href="#path11_fill"
           transform="matrix(-1.2870834,0,0,-1.2870834,1656.7949,2136.5435)"
           style="mix-blend-mode:normal;fill:#f37726;fill-opacity:1;stroke-width:0.83033466"
           id="use1240" />
        <use
           id="use1242"
           style="mix-blend-mode:normal;fill:#f37726;fill-opacity:1;stroke-width:1.20735443"
           transform="matrix(-0.88516667,0,0,-0.88516667,1649.0368,2133.1974)"
           xlink:href="#path11_fill"
           x="0"
           y="0"
           width="100%"
           height="100%" />
        <use
           height="100%"
           width="100%"
           y="0"
           x="0"
           xlink:href="#path11_fill"
           transform="matrix(-0.4798252,0,0,-0.4798252,1643.4178,2128.4548)"
           style="mix-blend-mode:normal;fill:#f37726;fill-opacity:1;stroke-width:2.22728992"
           id="use1244" />
        <use
           id="use1246"
           style="mix-blend-mode:normal;fill:#f37726;fill-opacity:1;stroke-width:2.22728992"
           transform="matrix(-0.4798252,0,0,-0.4798252,1674.6063,2128.4548)"
           xlink:href="#path11_fill"
           x="0"
           y="0"
           width="100%"
           height="100%" />
      </g>
    </g>
  </g>
  <g
     id="text876"
     style="font-style:normal;font-variant:normal;font-weight:normal;font-stretch:normal;font-size:10.58333302px;line-height:1.25;font-family:Overpass;-inkscape-font-specification:'Overpass, Normal';font-variant-ligatures:normal;font-variant-caps:normal;font-variant-numeric:normal;font-feature-settings:normal;text-align:start;letter-spacing:0px;word-spacing:0px;writing-mode:lr-tb;text-anchor:start;fill:#f37726;fill-opacity:1;stroke:none;stroke-width:0.26458332"
     aria-label="IPyForceGraph">
    <path
       id="path901"
       style="font-style:normal;font-variant:normal;font-weight:normal;font-stretch:normal;font-size:10.58333302px;font-family:Overpass;-inkscape-font-specification:'Overpass, Normal';font-variant-ligatures:normal;font-variant-caps:normal;font-variant-numeric:normal;font-feature-settings:normal;text-align:start;writing-mode:lr-tb;text-anchor:start;fill:#f37726;fill-opacity:1;stroke-width:0.26458332"
       d="M 13.994931,8.9601917 V 1.5497916 h 1.100708 v 7.4104001 z" />
    <path
       id="path903"
       style="font-style:normal;font-variant:normal;font-weight:normal;font-stretch:normal;font-size:10.58333302px;font-family:Overpass;-inkscape-font-specification:'Overpass, Normal';font-variant-ligatures:normal;font-variant-caps:normal;font-variant-numeric:normal;font-feature-settings:normal;text-align:start;writing-mode:lr-tb;text-anchor:start;fill:#f37726;fill-opacity:1;stroke-width:0.26458332"
       d="M 17.059343,8.9601917 V 1.5497916 h 2.976563 q 0.682129,0 1.147217,0.201538 0.470255,0.1963705 0.754476,0.5167643 0.289388,0.3203939 0.413411,0.7286377 0.129191,0.4030762 0.129191,0.8216553 0,0.2583821 -0.06201,0.5270996 -0.05684,0.2687174 -0.180867,0.5219319 -0.124024,0.2480469 -0.320394,0.4702555 -0.19637,0.2222087 -0.470256,0.3875733 -0.268717,0.1653645 -0.620117,0.2635498 -0.351399,0.093018 -0.790649,0.093018 h -1.875855 v 2.8783772 z m 3.038575,-3.937744 q 0.346232,0 0.578776,-0.1085205 0.237711,-0.1085205 0.382405,-0.2790527 0.149862,-0.1756999 0.211874,-0.3875733 0.06718,-0.217041 0.06718,-0.4289143 0,-0.1963705 -0.05684,-0.4082438 Q 21.224464,3.1982697 21.084937,3.0225698 20.945411,2.8417023 20.702532,2.7280142 20.46482,2.6091584 20.097918,2.6091584 h -1.937867 v 2.4132893 z" />
    <path
       id="path905"
       style="font-style:normal;font-variant:normal;font-weight:normal;font-stretch:normal;font-size:10.58333302px;font-family:Overpass;-inkscape-font-specification:'Overpass, Normal';font-variant-ligatures:normal;font-variant-caps:normal;font-variant-numeric:normal;font-feature-settings:normal;text-align:start;writing-mode:lr-tb;text-anchor:start;fill:#f37726;fill-opacity:1;stroke-width:0.26458332"
       d="M 25.482602,11.011746 H 24.361223 L 25.193214,8.8671742 23.172666,3.5496694 h 1.090372 l 1.333252,3.5398355 q 0.05684,0.1498617 0.08785,0.2480469 0.03101,0.098185 0.06201,0.2273763 0.03101,-0.1291911 0.06201,-0.2273763 0.031,-0.098185 0.08785,-0.2480469 l 1.343588,-3.5398355 h 1.100708 z" />
    <path
       id="path907"
       style="font-style:normal;font-variant:normal;font-weight:normal;font-stretch:normal;font-size:10.58333302px;font-family:Overpass;-inkscape-font-specification:'Overpass, Normal';font-variant-ligatures:normal;font-variant-caps:normal;font-variant-numeric:normal;font-feature-settings:normal;text-align:start;writing-mode:lr-tb;text-anchor:start;fill:#f37726;fill-opacity:1;stroke-width:0.26458332"
       d="M 29.56504,8.9601917 V 1.5497916 h 4.594035 v 1.0386962 h -3.493327 v 2.0308837 h 2.25826 v 1.0386963 h -2.25826 v 3.3021239 z" />
    <path
       id="path909"
       style="font-style:normal;font-variant:normal;font-weight:normal;font-stretch:normal;font-size:10.58333302px;font-family:Overpass;-inkscape-font-specification:'Overpass, Normal';font-variant-ligatures:normal;font-variant-caps:normal;font-variant-numeric:normal;font-feature-settings:normal;text-align:start;writing-mode:lr-tb;text-anchor:start;fill:#f37726;fill-opacity:1;stroke-width:0.26458332"
       d="m 36.675716,9.0893828 q -0.568441,0 -1.028361,-0.1912028 Q 35.192602,8.7069772 34.872209,8.3452422 34.551815,7.9783395 34.376115,7.4564076 34.205583,6.929308 34.205583,6.262682 q 0,-0.6666259 0.170532,-1.1937255 0.1757,-0.5270996 0.496094,-0.8888346 0.320393,-0.3669027 0.775146,-0.5581055 0.45992,-0.1963704 1.028361,-0.1963704 0.563273,0 1.023193,0.1963704 0.459921,0.1912028 0.780314,0.5581055 0.320394,0.361735 0.496094,0.8888346 0.1757,0.5270996 0.1757,1.1937255 0,0.666626 -0.1757,1.1937256 -0.1757,0.5219319 -0.496094,0.8888346 -0.320393,0.361735 -0.780314,0.5529378 -0.45992,0.1912028 -1.023193,0.1912028 z m 0,-1.0386963 q 0.315226,0 0.568441,-0.1240234 0.258382,-0.1240234 0.434082,-0.3513997 0.180867,-0.232544 0.273885,-0.5632731 0.09819,-0.3307292 0.09819,-0.7493083 0,-0.418579 -0.09819,-0.7493082 -0.09302,-0.3358968 -0.273885,-0.5684407 -0.1757,-0.232544 -0.434082,-0.3565674 -0.253215,-0.1240234 -0.568441,-0.1240234 -0.315226,0 -0.568441,0.1240234 -0.253214,0.1240234 -0.434082,0.3565674 -0.1757,0.2325439 -0.273885,0.5684407 -0.09302,0.3307292 -0.09302,0.7493082 0,0.4185791 0.09302,0.7493083 0.09819,0.3307291 0.273885,0.5632731 0.180868,0.2273763 0.434082,0.3513997 0.253215,0.1240234 0.568441,0.1240234 z" />
    <path
       id="path911"
       style="font-style:normal;font-variant:normal;font-weight:normal;font-stretch:normal;font-size:10.58333302px;font-family:Overpass;-inkscape-font-specification:'Overpass, Normal';font-variant-ligatures:normal;font-variant-caps:normal;font-variant-numeric:normal;font-feature-settings:normal;text-align:start;writing-mode:lr-tb;text-anchor:start;fill:#f37726;fill-opacity:1;stroke-width:0.26458332"
       d="M 40.468767,8.9601917 V 3.5496694 h 1.100708 v 0.6562907 q 0.191203,-0.4134114 0.496094,-0.594279 0.30489,-0.1860351 0.707967,-0.1860351 0.537435,0 0.909505,0.3255615 l -0.160197,1.0180257 q -0.149862,-0.1033529 -0.356567,-0.1808675 -0.201539,-0.082682 -0.496094,-0.082682 -0.186035,0 -0.382406,0.067179 -0.191203,0.062012 -0.3514,0.2273763 -0.160196,0.1601969 -0.263549,0.434082 -0.103353,0.2687174 -0.103353,0.6872965 v 3.0385741 z" />
    <path
       id="path913"
       style="font-style:normal;font-variant:normal;font-weight:normal;font-stretch:normal;font-size:10.58333302px;font-family:Overpass;-inkscape-font-specification:'Overpass, Normal';font-variant-ligatures:normal;font-variant-caps:normal;font-variant-numeric:normal;font-feature-settings:normal;text-align:start;writing-mode:lr-tb;text-anchor:start;fill:#f37726;fill-opacity:1;stroke-width:0.26458332"
       d="m 46.840471,9.0893828 q -0.542603,0 -0.981852,-0.1912028 Q 45.424537,8.7069772 45.114478,8.3452422 44.809587,7.9783395 44.644223,7.4564076 44.478858,6.929308 44.478858,6.262682 q 0,-0.6666259 0.165365,-1.1937255 0.165364,-0.5270996 0.470255,-0.8888346 0.310059,-0.3669027 0.744141,-0.5581055 0.439249,-0.1963704 0.981852,-0.1963704 0.754476,0 1.276408,0.3358968 0.527099,0.3358968 0.764811,1.0593668 l -1.043864,0.361735 Q 47.71897,4.8725861 47.476091,4.6813833 47.233212,4.4850128 46.881812,4.4850128 q -0.310059,0 -0.54777,0.1240235 -0.237712,0.1240234 -0.403076,0.3565673 -0.160197,0.2273763 -0.248047,0.5581055 -0.08268,0.3255615 -0.08268,0.7389729 0,0.4134115 0.08268,0.7441406 0.08785,0.3255616 0.242879,0.5529379 0.160197,0.2273762 0.387573,0.3513997 0.232544,0.1188558 0.5271,0.1188558 0.37207,0 0.63562,-0.2067057 0.268717,-0.2067058 0.382406,-0.5891114 L 48.90236,7.5649281 Q 48.685319,8.319404 48.163387,8.7069772 47.646623,9.0893828 46.840471,9.0893828 Z" />
    <path
       id="path915"
       style="font-style:normal;font-variant:normal;font-weight:normal;font-stretch:normal;font-size:10.58333302px;font-family:Overpass;-inkscape-font-specification:'Overpass, Normal';font-variant-ligatures:normal;font-variant-caps:normal;font-variant-numeric:normal;font-feature-settings:normal;text-align:start;writing-mode:lr-tb;text-anchor:start;fill:#f37726;fill-opacity:1;stroke-width:0.26458332"
       d="m 52.416357,9.0893828 q -0.563273,0 -1.018025,-0.1912028 Q 50.943579,8.7018096 50.623185,8.3400746 50.302791,7.9731719 50.127091,7.4460723 49.956559,6.9189727 49.956559,6.2523468 q 0,-0.666626 0.1757,-1.188558 0.1757,-0.5270995 0.496094,-0.8888346 0.325561,-0.3669026 0.775146,-0.5581054 0.454753,-0.1912028 1.012858,-0.1912028 0.480591,0 0.89917,0.1550293 0.423747,0.1498616 0.738973,0.4650879 0.320394,0.3100585 0.501262,0.7854817 0.186035,0.4754232 0.186035,1.1213786 0,0.1756998 -0.01034,0.3720703 -0.0052,0.1963704 -0.03101,0.3410644 h -3.643189 q 0.0052,0.3358968 0.118856,0.6046142 0.118856,0.2635498 0.310059,0.4547526 0.191202,0.1860352 0.434082,0.289388 0.242879,0.098185 0.506429,0.098185 0.335896,0 0.620117,-0.1395264 0.289388,-0.1395264 0.501261,-0.4082438 l 0.718302,0.738973 q -0.294555,0.3513997 -0.754475,0.5684407 -0.459921,0.217041 -1.095541,0.217041 z m 0,-4.6922199 q -0.258382,0 -0.496093,0.077515 -0.237712,0.072347 -0.423747,0.2377116 -0.180868,0.160197 -0.299723,0.4237468 -0.118856,0.2635497 -0.139527,0.6407877 h 2.583822 Q 53.630753,5.3996856 53.522233,5.1361359 53.413712,4.8725861 53.238013,4.7123891 53.062313,4.5470245 52.845272,4.4746775 52.633398,4.3971629 52.416357,4.3971629 Z" />
    <path
       id="path917"
       style="font-style:normal;font-variant:normal;font-weight:normal;font-stretch:normal;font-size:10.58333302px;font-family:Overpass;-inkscape-font-specification:'Overpass, Normal';font-variant-ligatures:normal;font-variant-caps:normal;font-variant-numeric:normal;font-feature-settings:normal;text-align:start;writing-mode:lr-tb;text-anchor:start;fill:#f37726;fill-opacity:1;stroke-width:0.26458332"
       d="m 59.134295,9.0893828 q -0.573609,0 -1.033529,-0.1498616 Q 57.640846,8.7896595 57.279111,8.5261097 56.922543,8.2625599 56.658994,7.9008249 56.400612,7.5339222 56.230079,7.1101755 56.064715,6.6864288 55.982032,6.2161733 q -0.07751,-0.4754232 -0.07751,-0.9611817 0,-0.4495849 0.08268,-0.9095051 0.08785,-0.4599203 0.26355,-0.883667 0.1757,-0.4289144 0.43925,-0.8009847 0.263549,-0.3720703 0.620117,-0.6459554 0.361735,-0.273885 0.816487,-0.4289143 0.454753,-0.160197 1.007691,-0.160197 0.532267,0 0.925008,0.1188558 0.397908,0.1136882 0.697632,0.3100586 0.299723,0.1963704 0.516764,0.4495849 0.217041,0.2532146 0.387573,0.5270996 L 60.669085,3.4049754 Q 60.539894,3.2241079 60.390032,3.063911 60.245338,2.8985464 60.059303,2.774523 59.873268,2.6504995 59.645891,2.5781525 q -0.227376,-0.072347 -0.511596,-0.072347 -0.403076,0 -0.718303,0.1188558 -0.310058,0.1188558 -0.542602,0.3255615 -0.227376,0.2015381 -0.387573,0.4754232 -0.160197,0.2687174 -0.258383,0.5736084 -0.09302,0.3048909 -0.139526,0.6304524 -0.04134,0.3203939 -0.04134,0.6252848 0,0.5322673 0.118856,1.028361 0.118855,0.4960937 0.37207,0.883667 0.253215,0.3824056 0.645955,0.6149495 0.397909,0.2273763 0.950847,0.2273763 0.346232,0 0.63562,-0.1188558 0.289388,-0.1240234 0.496094,-0.3358968 0.206705,-0.2118734 0.320393,-0.4960937 0.113689,-0.2842204 0.113689,-0.6149496 V 6.2936879 H 59.366839 V 5.2549916 h 2.464965 v 0.9663493 q 0,0.6976318 -0.206705,1.2350667 -0.206706,0.5322672 -0.573609,0.8991699 -0.361735,0.361735 -0.852661,0.5477702 -0.490926,0.1860351 -1.064534,0.1860351 z" />
    <path
       id="path919"
       style="font-style:normal;font-variant:normal;font-weight:normal;font-stretch:normal;font-size:10.58333302px;font-family:Overpass;-inkscape-font-specification:'Overpass, Normal';font-variant-ligatures:normal;font-variant-caps:normal;font-variant-numeric:normal;font-feature-settings:normal;text-align:start;writing-mode:lr-tb;text-anchor:start;fill:#f37726;fill-opacity:1;stroke-width:0.26458332"
       d="M 63.309749,8.9601917 V 3.5496694 h 1.100708 v 0.6562907 q 0.191203,-0.4134114 0.496094,-0.594279 0.304891,-0.1860351 0.707967,-0.1860351 0.537435,0 0.909505,0.3255615 l -0.160197,1.0180257 q -0.149861,-0.1033529 -0.356567,-0.1808675 -0.201538,-0.082682 -0.496094,-0.082682 -0.186035,0 -0.382405,0.067179 -0.191203,0.062012 -0.3514,0.2273763 -0.160197,0.1601969 -0.26355,0.434082 -0.103353,0.2687174 -0.103353,0.6872965 v 3.0385741 z" />
    <path
       id="path921"
       style="font-style:normal;font-variant:normal;font-weight:normal;font-stretch:normal;font-size:10.58333302px;font-family:Overpass;-inkscape-font-specification:'Overpass, Normal';font-variant-ligatures:normal;font-variant-caps:normal;font-variant-numeric:normal;font-feature-settings:normal;text-align:start;writing-mode:lr-tb;text-anchor:start;fill:#f37726;fill-opacity:1;stroke-width:0.26458332"
       d="m 71.733008,8.9601917 h -1.0542 V 8.4951039 q -0.103352,0.1085205 -0.248046,0.217041 -0.144694,0.1033528 -0.33073,0.1912028 -0.180867,0.082682 -0.408243,0.1343587 -0.227377,0.051676 -0.496094,0.051676 -0.413412,0 -0.764811,-0.1136881 Q 68.079484,8.8620065 67.821102,8.6346302 67.56272,8.4020863 67.412858,8.0661895 67.268164,7.725125 67.268164,7.2755401 q 0,-0.4650879 0.1757,-0.8009847 0.1757,-0.3410644 0.465088,-0.5581054 0.289388,-0.2222087 0.661458,-0.3255616 0.377238,-0.1033528 0.775147,-0.1033528 0.37207,0 0.713134,0.082682 0.346232,0.077515 0.620117,0.2377116 V 5.5082062 q 0,-0.304891 -0.07235,-0.5167644 -0.06718,-0.2118733 -0.211873,-0.3410644 -0.139526,-0.1343587 -0.356567,-0.1912028 -0.217041,-0.062012 -0.516765,-0.062012 -0.506429,0 -0.878499,0.1343587 -0.366903,0.1343587 -0.666626,0.3565674 L 67.65057,3.9837514 q 0.165364,-0.1136881 0.377238,-0.2118733 0.211873,-0.1033529 0.465087,-0.1808675 0.253215,-0.077515 0.547771,-0.1188558 0.294555,-0.046509 0.630452,-0.046509 0.227376,0 0.470256,0.025838 0.242879,0.025838 0.470255,0.1033529 0.232544,0.072347 0.434082,0.2118733 0.206706,0.1395264 0.356567,0.3669027 0.15503,0.2222086 0.24288,0.5477702 0.08785,0.3255615 0.08785,0.7751464 z M 69.397233,8.1126983 q 0.418579,0 0.738973,-0.1705323 0.325561,-0.1705322 0.542602,-0.4082438 V 6.7070993 Q 70.451432,6.5882436 70.146541,6.5158966 69.84165,6.4435495 69.521256,6.4435495 q -0.248047,0 -0.465088,0.046509 -0.217041,0.046509 -0.382405,0.1498617 -0.160197,0.098185 -0.253215,0.2583821 -0.09302,0.1550293 -0.09302,0.377238 0,0.3875732 0.268717,0.6149495 0.273885,0.2222087 0.800985,0.2222087 z" />
    <path
       id="path923"
       style="font-style:normal;font-variant:normal;font-weight:normal;font-stretch:normal;font-size:10.58333302px;font-family:Overpass;-inkscape-font-specification:'Overpass, Normal';font-variant-ligatures:normal;font-variant-caps:normal;font-variant-numeric:normal;font-feature-settings:normal;text-align:start;writing-mode:lr-tb;text-anchor:start;fill:#f37726;fill-opacity:1;stroke-width:0.26458332"
       d="m 75.629411,9.0893828 q -0.237712,0 -0.434082,-0.046509 -0.191203,-0.046509 -0.3514,-0.1291911 Q 74.683732,8.8310006 74.554541,8.7276478 74.430517,8.6191273 74.332332,8.4951039 v 2.0825601 l -1.100708,0.511597 V 3.5496694 h 1.100708 v 0.434082 q 0.211874,-0.2377115 0.521932,-0.3979085 0.310059,-0.1601969 0.775147,-0.1601969 0.511596,0 0.925008,0.1963704 0.413411,0.1912028 0.702799,0.5581055 0.289388,0.361735 0.444418,0.8888346 0.155029,0.5270996 0.155029,1.1937255 0,0.666626 -0.165365,1.1937256 -0.160197,0.5219319 -0.454752,0.8888346 -0.289388,0.361735 -0.7028,0.5529378 -0.408244,0.1912028 -0.904337,0.1912028 z m -0.15503,-1.0386963 q 0.625285,0 0.950847,-0.4599202 0.330729,-0.4599202 0.330729,-1.3280843 0,-0.3927408 -0.08785,-0.72347 Q 76.585425,5.2084829 76.42006,4.9707713 76.254695,4.7330597 76.016984,4.598701 75.779272,4.4643423 75.474381,4.4643423 q -0.387573,0 -0.676961,0.1601969 -0.28422,0.1550293 -0.465088,0.4495849 v 2.3512776 q 0.09302,0.1240235 0.206706,0.2377116 0.118856,0.1136882 0.258382,0.2015381 0.144694,0.082682 0.310059,0.1343587 0.170532,0.051676 0.366902,0.051676 z" />
    <path
       id="path925"
       style="font-style:normal;font-variant:normal;font-weight:normal;font-stretch:normal;font-size:10.58333302px;font-family:Overpass;-inkscape-font-specification:'Overpass, Normal';font-variant-ligatures:normal;font-variant-caps:normal;font-variant-numeric:normal;font-feature-settings:normal;text-align:start;writing-mode:lr-tb;text-anchor:start;fill:#f37726;fill-opacity:1;stroke-width:0.26458332"
       d="M 82.528211,8.9601917 V 5.7304148 q 0,-0.3410644 -0.08268,-0.578776 -0.08268,-0.2428792 -0.227376,-0.3927409 -0.144694,-0.1550293 -0.341065,-0.2222086 -0.19637,-0.072347 -0.428914,-0.072347 -0.248047,0 -0.45992,0.067179 -0.211873,0.062012 -0.366903,0.2067057 -0.155029,0.144694 -0.248047,0.3875733 -0.08785,0.2377115 -0.08785,0.5839436 V 8.9601917 H 79.184745 V 1.8288443 l 1.100708,-0.5115967 v 2.7543538 q 0.26355,-0.3358968 0.604615,-0.4909261 0.341064,-0.1550293 0.790649,-0.1550293 0.423747,0 0.780314,0.1240234 0.356568,0.1188558 0.61495,0.3927409 0.263549,0.2738851 0.408243,0.7131347 0.144694,0.4392497 0.144694,1.0748698 v 3.2297769 z" />
  </g>
</svg>
